<?xml version="1.0" standalone="no"?>
<!DOCTYPE svg PUBLIC "-//W3C//DTD SVG 20010904//EN"
 "http://www.w3.org/TR/2001/REC-SVG-20010904/DTD/svg10.dtd">
<svg version="1.0" xmlns="http://www.w3.org/2000/svg"
 width="593.000000pt" height="165.000000pt" viewBox="0 0 593.000000 165.000000"
 preserveAspectRatio="xMidYMid meet">
<metadata>
Created by potrace 1.15, written by Peter Selinger 2001-2017
</metadata>
<g transform="translate(0.000000,165.000000) scale(0.100000,-0.100000)"
fill="#000000" stroke="none">
<path d="M0 900 l0 -750 910 0 910 0 0 65 0 65 -845 0 -845 0 0 620 0 620
2835 0 2835 0 0 -620 0 -620 -845 0 -845 0 0 -65 0 -65 910 0 910 0 0 750 0
750 -2965 0 -2965 0 0 -750z"/>
<path d="M510 935 l0 -325 70 0 70 0 0 325 0 325 -70 0 -70 0 0 -325z"/>
<path d="M710 1205 l0 -55 90 0 90 0 0 -270 0 -270 70 0 70 0 0 270 0 270 90
0 90 0 0 55 0 55 -250 0 -250 0 0 -55z"/>
<path d="M1490 935 l0 -325 65 0 65 0 0 135 0 135 140 0 140 0 0 55 0 55 -140
0 -140 0 0 80 0 80 145 0 145 0 0 55 0 55 -210 0 -210 0 0 -325z"/>
<path d="M3280 935 l0 -325 65 0 65 0 0 159 0 160 33 25 c49 37 90 43 116 17
20 -20 21 -32 21 -191 l0 -170 71 0 71 0 -4 183 c-4 200 -10 221 -68 271 -25
20 -42 26 -81 26 -52 0 -111 -20 -141 -47 -17 -15 -18 -11 -18 100 l0 117 -65
0 -65 0 0 -325z"/>
<path d="M2158 1060 c-35 -35 -38 -36 -38 -10 0 18 -7 20 -60 20 l-60 0 0
-230 0 -230 65 0 65 0 0 160 c0 155 1 160 23 174 39 25 66 28 98 12 33 -17 30
-20 49 59 10 44 9 51 -6 62 -10 7 -38 13 -62 13 -35 0 -49 -6 -74 -30z"/>
<path d="M2903 1071 c-61 -28 -77 -61 -74 -143 2 -39 43 -83 98 -102 95 -34
123 -49 129 -69 9 -28 -28 -57 -70 -57 -17 1 -55 9 -84 19 -37 13 -55 15 -57
7 -2 -6 -8 -26 -14 -45 -6 -19 -11 -38 -11 -42 0 -16 104 -39 174 -39 114 1
176 39 192 117 15 76 -35 137 -144 174 -33 11 -68 29 -78 41 -18 19 -18 20 5
39 28 23 49 24 121 5 30 -8 56 -13 57 -12 2 1 9 23 17 48 13 45 13 46 -13 59
-14 7 -66 14 -116 16 -74 3 -98 0 -132 -16z"/>
<path d="M3997 1060 c-43 -27 -47 -28 -47 -10 0 18 -7 20 -60 20 l-60 0 0
-230 0 -230 65 0 65 0 0 163 c0 182 1 184 70 208 30 11 35 10 52 -11 16 -20
18 -42 18 -191 l0 -169 65 0 65 0 0 163 c0 182 1 184 70 208 30 11 35 10 52
-11 16 -20 18 -42 18 -191 l0 -169 66 0 66 0 -4 193 c-3 158 -6 198 -21 224
-25 47 -54 63 -113 63 -42 0 -61 -6 -100 -33 l-49 -34 -31 34 c-28 29 -37 33
-86 33 -43 0 -64 -6 -101 -30z"/>
<path d="M5295 1074 c-16 -9 -38 -24 -48 -32 -16 -15 -18 -14 -24 6 -5 20 -12
22 -64 22 l-59 0 0 -230 0 -230 65 0 65 0 0 159 0 160 33 25 c49 37 90 43 116
17 20 -20 21 -32 21 -191 l0 -170 65 0 65 0 0 180 c0 196 -6 225 -54 270 -35
31 -135 39 -181 14z"/>
<path d="M2455 1061 c-81 -38 -125 -114 -125 -220 0 -77 15 -125 53 -168 45
-51 98 -73 180 -73 70 0 153 16 163 31 3 5 -1 27 -7 49 -11 35 -16 40 -33 35
-73 -22 -103 -26 -137 -16 -39 12 -73 44 -84 79 l-6 22 145 0 145 0 6 44 c21
141 -60 236 -200 236 -37 0 -75 -8 -100 -19z m150 -86 c14 -13 25 -32 25 -42
0 -10 3 -28 6 -40 6 -23 5 -23 -85 -23 -88 0 -91 1 -91 23 0 31 36 86 63 97
37 15 57 11 82 -15z"/>
<path d="M4667 1064 c-56 -17 -63 -30 -47 -79 9 -28 16 -35 29 -29 47 20 122
36 144 30 34 -8 57 -32 57 -60 0 -22 -4 -24 -82 -28 -51 -3 -96 -11 -116 -22
-97 -50 -97 -212 -1 -262 44 -22 139 -15 178 14 28 21 29 21 34 2 4 -17 14
-20 61 -20 l56 0 0 175 c0 158 -2 180 -21 216 -28 55 -81 79 -174 78 -38 0
-92 -7 -118 -15z m183 -278 c0 -87 -121 -141 -145 -65 -18 56 28 98 108 99 36
0 37 -1 37 -34z"/>
<path d="M2420 200 l0 -200 30 0 30 0 0 200 0 200 -30 0 -30 0 0 -200z"/>
<path d="M3180 200 l0 -200 30 0 30 0 0 200 0 200 -30 0 -30 0 0 -200z"/>
<path d="M1980 210 l0 -140 35 0 35 0 0 140 0 140 -35 0 -35 0 0 -140z"/>
<path d="M2070 330 c0 -17 7 -20 40 -20 l40 0 0 -120 0 -120 30 0 30 0 0 120
0 120 40 0 c33 0 40 3 40 20 0 19 -7 20 -110 20 -103 0 -110 -1 -110 -20z"/>
<path d="M2630 210 l0 -140 35 0 35 0 0 140 0 140 -35 0 -35 0 0 -140z"/>
<path d="M2720 330 c0 -17 7 -20 40 -20 l40 0 0 -120 0 -120 30 0 30 0 0 120
0 120 40 0 c33 0 40 3 40 20 0 19 -7 20 -110 20 -103 0 -110 -1 -110 -20z"/>
<path d="M2960 210 l0 -140 35 0 35 0 0 140 0 140 -35 0 -35 0 0 -140z"/>
<path d="M3380 210 l0 -140 35 0 35 0 0 140 0 140 -35 0 -35 0 0 -140z"/>
<path d="M3500 210 l0 -140 35 0 35 0 0 87 0 88 53 -87 c48 -81 54 -88 85 -88
l32 0 0 140 0 140 -30 0 -29 0 -3 -87 -3 -88 -50 87 c-49 86 -51 88 -87 88
l-38 0 0 -140z"/>
<path d="M3790 210 l0 -140 100 0 c93 0 100 1 100 20 0 18 -7 20 -65 20 l-65
0 0 40 0 40 60 0 c53 0 60 2 60 20 0 18 -7 20 -60 20 l-60 0 0 40 0 40 65 0
c58 0 65 2 65 20 0 19 -7 20 -100 20 l-100 0 0 -140z"/>
</g>
</svg>
